HIERARCHY
ROOT Hips
{
	OFFSET 0.000000 0.000000 0.000000 
	CHANNELS 6 Xposition Yposition Zposition Zrotation Yrotation Xrotation
	JOINT LeftUpLeg
	{
		OFFSET 1.363060 -1.794630 0.839290 
		CHANNELS 3 Zrotation Yrotation Xrotation
		JOINT LeftLeg
		{
			OFFSET 2.448110 -6.726130 0.000000 
			CHANNELS 3 Zrotation Yrotation Xrotation
			JOINT LeftFoot
			{
				OFFSET 2.562200 -7.039590 0.000000 
				CHANNELS 3 Zrotation Yrotation Xrotation
				JOINT LeftToeBase
				{
					OFFSET 0.157640 -0.433110 2.322550 
					CHANNELS 3 Zrotation Yrotation Xrotation
					End Site
					{
						OFFSET 0.000000 0.000000 0.000000 
					}
				}
			}
		}
	}
	JOINT RightUpLeg
	{
		OFFSET -1.305520 -1.794630 0.839290 
		CHANNELS 3 Zrotation Yrotation Xrotation
		JOINT RightLeg
		{
			OFFSET -2.542530 -6.985550 0.000000 
			CHANNELS 3 Zrotation Yrotation Xrotation
			JOINT RightFoot
			{
				OFFSET -2.568260 -7.056230 0.000000 
				CHANNELS 3 Zrotation Yrotation Xrotation
				JOINT RightToeBase
				{
					OFFSET -0.164730 -0.452590 2.363150 
					CHANNELS 3 Zrotation Yrotation Xrotation
					End Site
					{
						OFFSET 0.000000 0.000000 0.000000 
					}
				}
			}
		}
	}
	JOINT Spine
	{
		OFFSET 0.028270 2.035590 -0.193380 
		CHANNELS 3 Zrotation Yrotation Xrotation
		JOINT Spine1
		{
			OFFSET 0.056720 2.048850 -0.042750 
			CHANNELS 3 Zrotation Yrotation Xrotation
			JOINT Neck1
			{
				OFFSET -0.054170 1.746240 0.172020 
				CHANNELS 3 Zrotation Yrotation Xrotation
				JOINT Head
				{
					OFFSET 0.104070 1.761360 -0.123970 
					CHANNELS 3 Zrotation Yrotation Xrotation
					End Site
					{
						OFFSET 0.000000 0.000000 0.000000 
					}
				}
			}
			JOINT LeftArm
			{
				OFFSET 3.362410 1.200890 -0.311210 
				CHANNELS 3 Zrotation Yrotation Xrotation
				JOINT LeftForeArm
				{
					OFFSET 4.983000 -0.000000 -0.000000 
					CHANNELS 3 Zrotation Yrotation Xrotation
					JOINT LeftHand
					{
						OFFSET 3.483560 -0.000000 -0.000000 
						CHANNELS 3 Zrotation Yrotation Xrotation
						JOINT LeftHandIndex1
						{
							OFFSET 0.715260 -0.000000 -0.000000 
							CHANNELS 3 Zrotation Yrotation Xrotation
							End Site
							{
								OFFSET 0.000000 0.000000 0.000000 
							}
						}
					}
				}
			}
			JOINT RightArm
			{
				OFFSET -3.136600 1.374050 -0.404650 
				CHANNELS 3 Zrotation Yrotation Xrotation
				JOINT RightForeArm
				{
					OFFSET -5.241900 -0.000000 -0.000000 
					CHANNELS 3 Zrotation Yrotation Xrotation
					JOINT RightHand
					{
						OFFSET -3.444170 -0.000000 -0.000000 
						CHANNELS 3 Zrotation Yrotation Xrotation
						JOINT RightHandIndex1
						{
							OFFSET -0.622530 -0.000000 -0.000000 
							CHANNELS 3 Zrotation Yrotation Xrotation
							End Site
							{
								OFFSET 0.000000 0.000000 0.000000 
							}
						}
					}
				}
			}
		}
	}
}
MOTION
Frames: 18
Frame Time: 0.041667
-0.117323 17.976491 1.714998 0.305448 3.036886 1.411309 -22.502815 -32.948239 12.665814 -1.764512 1.816113 6.401844 -4.097498 27.247080 -7.856180 0.111600 -2.154200 -5.932100 23.305657 3.377763 -4.939645 -1.416372 -7.211789 21.900186 0.540991 -5.348971 -7.957496 -0.000600 -0.154900 0.425500 1.364298 -0.275897 1.192753 0.048593 -0.271561 -3.855321 10.858458 -9.269105 20.158817 5.514600 -4.172200 14.210500 -85.325087 4.470045 20.151030 15.537261 -21.719791 -3.329649 -1.053647 -1.924469 7.694205 -7.125000 0.000000 0.000000 86.113353 -3.717064 14.742570 -16.230035 23.571854 -3.384950 0.262845 -0.137684 8.084921 7.125000 0.000000 0.000000 
-0.118313 17.976788 1.713018 0.233035 3.009760 1.399770 -22.333661 -32.961556 12.488024 -1.750121 1.903886 6.637553 -4.102112 27.230420 -7.889707 0.124800 -2.277300 -6.272600 23.396238 3.413166 -4.883773 -1.403826 -7.179188 21.807035 0.551009 -5.392938 -7.898982 -0.000600 -0.155400 0.426900 1.382481 -0.249230 1.221582 0.037612 -0.260073 -3.815770 10.856857 -9.272224 20.133488 5.510600 -4.171500 14.208500 -85.328431 4.369813 20.189194 15.496147 -21.656740 -3.309039 -1.050432 -1.938894 7.553077 -7.125000 0.000000 0.000000 86.124379 -3.671439 14.655365 -16.230470 23.576350 -3.385248 0.262133 -0.142612 8.135023 7.125000 0.000000 0.000000 
-0.118511 17.978175 1.712226 0.115178 3.002215 1.397539 -22.181357 -32.966485 12.444799 -1.750690 1.906121 6.636967 -4.115367 27.275682 -7.836644 0.136300 -2.379600 -6.556000 23.542177 3.477346 -4.868996 -1.401075 -7.172172 21.789761 0.563359 -5.460692 -7.879265 -0.000100 -0.058400 0.160400 1.400108 -0.228543 1.240187 -0.011361 -0.253296 -3.781169 10.892015 -9.279708 20.077596 5.517400 -4.167700 14.185600 -85.323627 4.286289 20.085236 15.464750 -21.608912 -3.292410 -1.053664 -1.939995 7.711092 -7.125000 0.000000 0.000000 86.143404 -3.654684 14.676847 -16.236223 23.586096 -3.388142 0.262064 -0.143546 8.076330 7.125000 0.000000 0.000000 
-0.117521 17.977383 1.712523 0.139296 3.019242 1.376830 -22.201737 -32.987808 12.420263 -1.745489 1.931099 6.704911 -4.117819 27.286447 -7.806632 0.138400 -2.397500 -6.605400 23.507308 3.461748 -4.835356 -1.397941 -7.164003 21.766012 0.562807 -5.455130 -7.872551 -0.000600 -0.156500 0.430000 1.402712 -0.245834 1.230459 0.008439 -0.260820 -3.821270 10.931387 -9.257292 20.086286 5.544900 -4.157300 14.192700 -85.368653 4.328305 19.989800 15.449254 -21.584923 -3.285786 -1.071352 -1.902854 7.769892 -7.125000 0.000000 0.000000 86.128605 -3.696347 14.754349 -16.255684 23.610561 -3.396811 0.261458 -0.139388 8.023760 7.125000 0.000000 0.000000 
-0.116234 17.976788 1.712127 0.187157 3.017623 1.358252 -22.265642 -32.978485 12.438593 -1.743164 1.943095 6.739763 -4.115077 27.277166 -7.837602 0.134400 -2.362800 -6.509400 23.436748 3.393333 -4.830161 -1.396683 -7.158855 21.750208 0.549581 -5.373893 -7.859156 -0.001000 -0.200900 0.552000 1.396202 -0.242937 1.226681 0.028340 -0.257223 -3.853942 10.874578 -9.260653 20.144633 5.520600 -4.163000 14.225100 -85.385214 4.341772 19.938044 15.432539 -21.559577 -3.279042 -1.077451 -1.875232 7.775586 -7.125000 0.000000 0.000000 86.117021 -3.686170 14.722636 -16.236676 23.583561 -3.388426 0.260629 -0.139432 8.003144 7.125000 0.000000 0.000000 
-0.115739 17.977283 1.711137 0.163539 3.000692 1.364808 -22.240126 -32.960832 12.442193 -1.745181 1.939222 6.730094 -4.110486 27.248152 -7.923743 0.124300 -2.273000 -6.260700 23.466012 3.415262 -4.836702 -1.396903 -7.160567 21.754843 0.551272 -5.388393 -7.878396 -0.000400 -0.123200 0.338500 1.400365 -0.222214 1.237008 0.022324 -0.246890 -3.841970 10.809711 -9.286364 20.173698 5.480900 -4.174300 14.251600 -85.384619 4.317387 19.921062 15.428074 -21.552111 -3.277057 -1.072269 -1.872969 7.789669 -7.125000 0.000000 0.000000 86.112278 -3.636940 14.715998 -16.218684 23.558979 -3.380588 0.261027 -0.139236 7.958483 7.125000 0.000000 0.000000 
-0.116333 17.978175 1.710147 0.139237 3.007644 1.353874 -22.200493 -32.973926 12.425251 -1.744920 1.952478 6.766905 -4.105301 27.207891 -8.064578 0.112900 -2.166100 -5.965000 23.509944 3.423061 -4.820418 -1.394897 -7.157342 21.745548 0.564817 -5.468310 -7.878505 0.000000 0.028200 -0.077500 1.409518 -0.213900 1.252466 0.029902 -0.243412 -3.823515 10.819492 -9.298963 20.169290 5.483300 -4.177900 14.260000 -85.385469 4.291829 19.938998 15.427706 -21.550573 -3.277207 -1.071501 -1.868755 7.758426 -7.125000 0.000000 0.000000 86.120216 -3.628126 14.688720 -16.216729 23.556770 -3.379345 0.262490 -0.141771 8.025626 7.125000 0.000000 0.000000 
-0.116927 17.977482 1.709850 0.138028 3.008159 1.352423 -22.179667 -32.982224 12.390237 -1.741556 1.968816 6.810039 -4.109275 27.223123 -8.025303 0.121000 -2.242600 -6.176700 23.523271 3.456360 -4.798365 -1.392348 -7.152418 21.730596 0.575761 -5.530756 -7.869991 0.000000 0.018800 -0.051800 1.420055 -0.215470 1.287981 0.060414 -0.245246 -3.749309 10.859278 -9.292650 20.099580 5.499900 -4.171500 14.231300 -85.405149 4.230297 19.885675 15.436931 -21.561818 -3.280937 -1.071661 -1.865154 7.795001 -7.125000 0.000000 0.000000 86.099874 -3.589016 14.796983 -16.223786 23.564252 -3.381841 0.266144 -0.138939 8.053732 7.125000 0.000000 0.000000 
-0.116036 17.977184 1.710048 0.091339 2.987088 1.340635 -22.121091 -32.963942 12.367935 -1.739806 1.974680 6.823554 -4.108422 27.218428 -7.954665 0.122600 -2.256800 -6.215800 23.569743 3.484158 -4.767054 -1.390258 -7.145066 21.710911 0.576235 -5.522280 -7.822498 -0.000100 -0.059800 0.164300 1.429422 -0.196424 1.279985 0.048453 -0.236471 -3.771025 10.880491 -9.313376 20.102603 5.506100 -4.179400 14.228100 -85.420564 4.230157 19.774263 15.422446 -21.540038 -3.272431 -1.071667 -1.871693 7.880388 -7.125000 0.000000 0.000000 86.102290 -3.619872 14.871028 -16.232154 23.573531 -3.385744 0.265546 -0.135087 8.038528 7.125000 0.000000 0.000000 
-0.114155 17.976491 1.710147 0.067418 2.958871 1.333093 -22.099936 -32.935866 12.359948 -1.740132 1.973154 6.818689 -4.108887 27.220018 -7.942984 0.116800 -2.203100 -6.067400 23.580169 3.477604 -4.766472 -1.389391 -7.140393 21.698417 0.570352 -5.479244 -7.786908 -0.000100 -0.057300 0.157400 1.415152 -0.166562 1.280229 -0.004269 -0.222721 -3.774860 10.899710 -9.348823 20.106919 5.507100 -4.191000 14.237000 -85.378041 4.229294 19.803204 15.414932 -21.533361 -3.267299 -1.090096 -1.887269 7.892805 -7.125000 0.000000 0.000000 86.127203 -3.646761 14.906751 -16.253328 23.606907 -3.396275 0.262592 -0.137851 7.999497 7.125000 0.000000 0.000000 
-0.112967 17.976986 1.709751 0.044199 2.967145 1.325640 -22.094621 -32.937344 12.391130 -1.741569 1.963140 6.788618 -4.109234 27.228203 -7.888962 0.124000 -2.269900 -6.252300 23.601862 3.501273 -4.749720 -1.389260 -7.140511 21.699414 0.571837 -5.490595 -7.800034 -0.000600 -0.157500 0.432900 1.406468 -0.155798 1.306311 -0.048568 -0.219165 -3.725699 10.872278 -9.369350 20.097119 5.488800 -4.199700 14.244900 -85.331806 4.161832 19.864339 15.397255 -21.510138 -3.258529 -1.113450 -1.883835 7.900996 -7.125000 0.000000 0.000000 86.144854 -3.620597 14.931718 -16.277357 23.644064 -3.407596 0.261972 -0.139241 7.929175 7.125000 0.000000 0.000000 
-0.113957 17.977383 1.710048 0.067503 2.989383 1.311413 -22.166604 -32.938332 12.471560 -1.745168 1.939118 6.721852 -4.119440 27.290959 -7.815333 0.132800 -2.349200 -6.471800 23.590165 3.577708 -4.702957 -1.392410 -7.151527 21.730736 0.580372 -5.553946 -7.854513 -0.001100 -0.216800 0.595700 1.404312 -0.173479 1.304463 -0.026051 -0.227068 -3.735411 10.862665 -9.326004 20.125846 5.495200 -4.183300 14.252000 -85.323521 4.165809 19.902585 15.381193 -21.488141 -3.250850 -1.118438 -1.889645 7.846566 -7.125000 0.000000 0.000000 86.138045 -3.649676 14.986802 -16.299888 23.674778 -3.417422 0.262054 -0.138352 7.893249 7.125000 0.000000 0.000000 
-0.113957 17.977085 1.710642 0.137694 2.995993 1.324230 -22.295282 -32.924210 12.537984 -1.747104 1.904796 6.628630 -4.129348 27.376752 -7.554351 0.162100 -2.593900 -7.150000 23.517654 3.604353 -4.722290 -1.398337 -7.169042 21.779309 0.584688 -5.588236 -7.891370 -0.000700 -0.172300 0.473400 1.389636 -0.187074 1.280268 0.008619 -0.231202 -3.769039 10.869828 -9.287122 20.140785 5.503400 -4.166100 14.241000 -85.328485 4.256163 19.890516 15.400168 -21.519299 -3.259040 -1.108874 -1.916109 7.820726 -7.125000 0.000000 0.000000 86.125452 -3.682422 15.043015 -16.293251 23.663812 -3.414791 0.261137 -0.136837 7.881479 7.125000 0.000000 0.000000 
-0.111977 17.976392 1.708860 0.209875 3.015556 1.336010 -22.422489 -32.926752 12.599390 -1.749960 1.862490 6.512227 -4.141366 27.479287 -7.258188 0.196600 -2.855500 -7.876700 23.433923 3.536026 -4.809585 -1.406178 -7.189116 21.835643 0.583581 -5.583746 -7.894118 0.000000 -0.026300 0.072200 1.378665 -0.201933 1.264743 0.037322 -0.236854 -3.800347 10.910587 -9.265686 20.106135 5.530000 -4.157600 14.217200 -85.343137 4.322612 19.903493 15.425619 -21.558597 -3.270340 -1.103555 -1.939251 7.743988 -7.125000 0.000000 0.000000 86.104393 -3.717670 15.047376 -16.297928 23.672477 -3.417953 0.256531 -0.138149 7.859016 7.125000 0.000000 0.000000 
-0.109799 17.975501 1.706385 0.258300 3.055227 1.325914 -22.506720 -32.953270 12.663055 -1.755224 1.832007 6.431835 -4.137682 27.473681 -7.290274 0.176800 -2.708300 -7.467700 23.362407 3.456462 -4.861048 -1.413287 -7.206732 21.885607 0.574749 -5.539031 -7.918699 0.000000 0.024700 -0.067900 1.395229 -0.201913 1.266486 0.104939 -0.234899 -3.818481 10.887879 -9.253236 20.097162 5.526700 -4.158300 14.211900 -85.402245 4.316628 19.863183 15.404434 -21.523848 -3.260739 -1.106723 -1.920334 7.805622 -7.125000 0.000000 0.000000 86.029508 -3.780893 15.100664 -16.332631 23.720444 -3.433147 0.254846 -0.138137 7.674521 7.125000 0.000000 0.000000 
-0.109403 17.975402 1.706088 0.256838 3.067929 1.327046 -22.517630 -32.957817 12.689975 -1.757070 1.820690 6.401679 -4.136425 27.471793 -7.284979 0.169800 -2.654800 -7.319200 23.360527 3.522146 -4.843802 -1.415919 -7.215438 21.910321 0.574360 -5.547855 -7.966837 -0.000200 -0.089700 0.246400 1.434632 -0.186134 1.274523 0.199525 -0.225424 -3.798505 10.798106 -9.260667 20.119147 5.481700 -4.168600 14.217700 -85.458018 4.292942 19.875509 15.373950 -21.475316 -3.247761 -1.108083 -1.896465 7.799343 -7.125000 0.000000 0.000000 85.947436 -3.827364 15.130302 -16.365470 23.764708 -3.447148 0.254036 -0.135288 7.591219 7.125000 0.000000 0.000000 
-0.108710 17.975303 1.704998 0.210258 3.059116 1.331336 -22.457707 -32.951728 12.683326 -1.759100 1.820011 6.399203 -4.136530 27.456474 -7.375300 0.158600 -2.566300 -7.073400 23.418899 3.539097 -4.856524 -1.414741 -7.212775 21.902380 0.584877 -5.600726 -7.926551 0.000000 -0.008100 0.022300 1.467572 -0.162019 1.274228 0.233875 -0.214064 -3.795277 10.806878 -9.260134 20.105438 5.489800 -4.171800 14.204900 -85.519809 4.250895 19.796602 15.326467 -21.401119 -3.224889 -1.118653 -1.877453 7.832045 -7.125000 0.000000 0.000000 85.894623 -3.862839 15.160444 -16.407203 23.820361 -3.465002 0.254199 -0.131035 7.546964 7.125000 0.000000 0.000000 
-0.106432 17.976689 1.702523 0.255493 3.090125 1.333054 -22.505387 -32.984828 12.703354 -1.762092 1.819764 6.404649 -4.121778 27.370413 -7.646420 0.125900 -2.287400 -6.300600 23.365011 3.477309 -4.898525 -1.412307 -7.207869 21.884159 0.591862 -5.630423 -7.874462 -0.000500 0.146400 -0.402400 1.438060 -0.172554 1.231939 0.210683 -0.217514 -3.883866 10.865617 -9.244791 20.085517 5.520200 -4.164100 14.167500 -85.486054 4.326749 19.790453 15.320299 -21.395276 -3.222081 -1.117932 -1.882892 7.819240 -7.125000 0.000000 0.000000 85.924296 -3.952519 15.216577 -16.423353 23.837911 -3.471589 0.255829 -0.127433 7.460377 7.125000 0.000000 0.000000 
